<?xml version="1.0" standalone="no"?><!DOCTYPE svg PUBLIC "-//W3C//DTD SVG 1.1//EN" "http://www.w3.org/Graphics/SVG/1.1/DTD/svg11.dtd"><svg t="1666261477974" class="icon" viewBox="0 0 1024 1024" version="1.1" xmlns="http://www.w3.org/2000/svg" p-id="2642" xmlns:xlink="http://www.w3.org/1999/xlink" width="32" height="32"><path d="M798.326 124.18H225.674c-87.158 0-158.064 70.964-158.064 158.183v213.171a20.07 20.07 0 0 0 20.08 20.07 20.09 20.09 0 0 0 20.08-20.07V282.363c0-65.08 52.88-118.016 117.904-118.016h572.682c65.02 0 117.894 52.936 117.894 118.016v213.171a20.086 20.086 0 0 0 20.09 20.07 20.06 20.06 0 0 0 20.05-20.07V282.363c0-87.214-70.88-158.183-158.064-158.183z m-8.423 558.828a20.111 20.111 0 0 0 1.224 28.39 151.936 151.936 0 0 1 49.055 111.622 20.07 20.07 0 1 0 40.161 0 192.282 192.282 0 0 0-62.075-141.23 20.096 20.096 0 0 0-28.365 1.218z m-449.746-14.889c5.5-3.359 9.503-9.032 9.83-15.949a20.06 20.06 0 0 0-19.107-21.017 87.946 87.946 0 0 1-83.907-87.962c0-38.999 26.138-73.8 63.58-84.685a20.07 20.07 0 0 0 13.66-24.883c-3.087-10.634-14.253-16.799-24.857-13.69-54.466 15.83-92.549 66.493-92.549 123.232 0 42.64 20.751 80.492 52.88 103.829-68.578 29.158-116.066 96.758-116.066 175.97a20.08 20.08 0 1 0 40.161 0A150.682 150.682 0 0 1 329.764 671.82c3.983-0.082 7.368-1.613 10.393-3.702z m384.451-248.166c-10.609-3.139-21.801 3.026-24.883 13.69s3.026 21.801 13.66 24.889c37.443 10.88 63.58 45.686 63.58 84.674a87.951 87.951 0 0 1-83.912 87.972 20.086 20.086 0 1 0 0.948 40.156h0.947c68.52-3.25 122.173-59.52 122.173-128.117 0.031-56.77-38.016-107.464-92.513-123.264z m-212.613-61.855c-88.187 0-159.898 71.793-159.898 160.03 0 57.12 30.137 107.193 75.213 135.522-91.458 34.442-156.84 122.65-156.84 226.089a20.055 20.055 0 0 0 20.08 20.08 20.096 20.096 0 0 0 20.08-20.08c0-111.13 90.348-201.57 201.39-201.57 88.187 0 159.924-71.787 159.924-160.06-0.026-88.244-71.798-160.006-159.95-160.011z m0 279.91c-66.043 0-119.762-53.77-119.762-119.88 0-66.099 53.719-119.838 119.762-119.838 66.048 0 119.767 53.77 119.767 119.839 0 66.12-53.72 119.88-119.767 119.88z m134.876 64.773a20.106 20.106 0 0 0 1.224 28.39 202.173 202.173 0 0 1 65.264 148.573c0 11.11 8.976 20.07 20.086 20.07a20.08 20.08 0 0 0 20.076-20.07c0-67.548-28.55-132.49-78.295-178.181-8.11-7.475-20.829-6.953-28.355 1.218z" p-id="2643"></path></svg>